# xmcd CD database file
#
# Track frame offsets:
#	150
#	13225
#	25695
#	36990
#	47825
#	58610
#	73122
#	83365
#	94442
#	102395
#	114227
#	125682
#	138300
#	148382
#	161075
#	172215
#	182970
#	193260
#	204535
#	215352
#	228700
#	239047
#	251430
#	262310
#	273755
#	286885
#	300305
#	309875
#	320230
#	330817
#	339770
#	348640
#	358807
#
# Disc length: 4936 seconds
#
# Revision: 6
# Processed by: cddbd v1.5.2PL0 Copyright (c) Steve Scherf et al.
# Submitted via: CDex 1.94
#
DISCID=05134621
DTITLE=Various Artist - Snatch and Grab It
DYEAR=2008
DGENRE=Rhythm and Blues
TTITLE0=Julia Lee - Snatch And Grab It
TTITLE1=Louis Jordan - Boogie Woogie Blue Plate
TTITLE2=Piano Red - Let's Have A Good Time Tonight
TTITLE3=Nellie Lutcher and Nat King Cole - For You My Love
TTITLE4=The Orioles - Baby, Please Don't Go
TTITLE5=Arthur 'big Boy' Crudup - I'm Gonna Dig Myself A Hole
TTITLE6=Smiley Lewis - Ain't Gonna Do It
TTITLE7=Howlin' Wolf - Mr. Highway Man (Cadillac Daddy)
TTITLE8=Prisonaires - That Chick's Too Young To Fry
TTITLE9=Melvin Smith - It Went Down Easy
TTITLE10=Joe Hill Louis - Hydramatic Woman
TTITLE11=Little Richard - Little Richard Boogie
TTITLE12=Herbert Moore - Something's Wrong
TTITLE13=Rufus Thomas - Tiger Man
TTITLE14=Shy Guy Douglas - No Place Like Home
TTITLE15=Spiders - Don't Knock
TTITLE16=Jesse Stone and Mickey Baker - Night Life
TTITLE17=The Midnighters - Don't Change Your Pretty Ways
TTITLE18=Screamin' Jay Hawkins - What That Is
TTITLE19=Larry Dale and Mickey Baker - Midnight Hours
TTITLE20=Fats Domino - Poor Me
TTITLE21=Big Al Sears - Tom, Dick'n' Harry
TTITLE22=Cadillacs - Zoom
TTITLE23=Bobby Mitchell - Goin' Round In Circles
TTITLE24=Mickey and Sylvia - Dearest
TTITLE25=Frankie Lymon and The Teenagers - I Want You To Be My Girl
TTITLE26=Ray Sharpe - Oh My Baby's Gone
TTITLE27=The Platters - Goodnight Sweetheart, It's Time To Go
TTITLE28=The Cues - Yes Sir
TTITLE29=Allen Toussaint - Tim Tam
TTITLE30=Leonard Lee - So Tired
TTITLE31=Jimmy Mccracklin - The Wobble
TTITLE32=King Curtis - Beach Party
EXTD='Snatch And Grab It!' (Papersleeve]\n[1947 - 1997]\nLabel: Bear Family Records\nBCD 17031
EXTT0=
EXTT1=
EXTT2=
EXTT3=
EXTT4=
EXTT5=
EXTT6=
EXTT7=
EXTT8=
EXTT9=
EXTT10=
EXTT11=
EXTT12=
EXTT13=
EXTT14=
EXTT15=
EXTT16=
EXTT17=
EXTT18=
EXTT19=
EXTT20=
EXTT21=
EXTT22=
EXTT23=
EXTT24=
EXTT25=
EXTT26=
EXTT27=
EXTT28=
EXTT29=
EXTT30=
EXTT31=
EXTT32=
PLAYORDER=
